<?xml version="1.0" encoding="UTF-8"?>
<!DOCTYPE svg PUBLIC "-//W3C//DTD SVG 1.1//EN" "http://www.w3.org/Graphics/SVG/1.1/DTD/svg11.dtd">
<!-- Creator: CorelDRAW X6 -->
<svg xmlns="http://www.w3.org/2000/svg" xml:space="preserve" width="6.79734in" height="4.34077in" version="1.1" style="shape-rendering:geometricPrecision; text-rendering:geometricPrecision; image-rendering:optimizeQuality; fill-rule:evenodd; clip-rule:evenodd"
viewBox="0 0 6727 4296"
 xmlns:xlink="http://www.w3.org/1999/xlink">
 <defs>
  <style type="text/css">
   <![CDATA[
    .fil23 {fill:#41240B}
    .fil22 {fill:#D3A481}
    .fil3 {fill:#233760;fill-rule:nonzero}
    .fil10 {fill:#41240B;fill-rule:nonzero}
    .fil13 {fill:#49300E;fill-rule:nonzero}
    .fil5 {fill:#4F658E;fill-rule:nonzero}
    .fil0 {fill:#503A2C;fill-rule:nonzero}
    .fil2 {fill:#545B39;fill-rule:nonzero}
    .fil11 {fill:#604318;fill-rule:nonzero}
    .fil18 {fill:#608FE2;fill-rule:nonzero}
    .fil4 {fill:#7B865B;fill-rule:nonzero}
    .fil14 {fill:#8E642D;fill-rule:nonzero}
    .fil16 {fill:#BAB617;fill-rule:nonzero}
    .fil20 {fill:#BFB4B0;fill-rule:nonzero}
    .fil6 {fill:#D3A481;fill-rule:nonzero}
    .fil1 {fill:#E42B0F;fill-rule:nonzero}
    .fil21 {fill:#F1E6E2;fill-rule:nonzero}
    .fil15 {fill:#F8F81A;fill-rule:nonzero}
    .fil7 {fill:#FAC99E;fill-rule:nonzero}
    .fil19 {fill:#FFBF31;fill-rule:nonzero}
    .fil8 {fill:#FFCFAE;fill-rule:nonzero}
    .fil17 {fill:#FFFCA1;fill-rule:nonzero}
    .fil9 {fill:white;fill-rule:nonzero}
    .fil12 {fill:#503A2C;fill-rule:nonzero;fill-opacity:0.301961}
    .fil29 {fill:url(#id0)}
    .fil26 {fill:url(#id1)}
    .fil24 {fill:url(#id2)}
    .fil34 {fill:url(#id3)}
    .fil25 {fill:url(#id4)}
    .fil28 {fill:url(#id5)}
    .fil31 {fill:url(#id6)}
    .fil32 {fill:url(#id7)}
    .fil27 {fill:url(#id8)}
    .fil33 {fill:url(#id9)}
    .fil30 {fill:url(#id10)}
   ]]>
  </style>
  <linearGradient id="id0" gradientUnits="userSpaceOnUse" x1="1676.55" y1="1550.32" x2="1703.57" y2="1550.32">
   <stop offset="0" style="stop-color:#824B00"/>
   <stop offset="1" style="stop-color:#DEAB2D"/>
  </linearGradient>
  <linearGradient id="id1" gradientUnits="userSpaceOnUse" xlink:href="#id0" x1="1679.98" y1="1723.77" x2="1657.87" y2="1724.86">
  </linearGradient>
  <linearGradient id="id2" gradientUnits="userSpaceOnUse" x1="1568.55" y1="1673.98" x2="1774.88" y2="1545.76">
   <stop offset="0" style="stop-color:#9A6500"/>
   <stop offset="0.431373" style="stop-color:#CC9900"/>
   <stop offset="1" style="stop-color:#9A6500"/>
  </linearGradient>
  <linearGradient id="id3" gradientUnits="userSpaceOnUse" xlink:href="#id0" x1="1658.43" y1="1625.29" x2="1571.38" y2="1632.14">
  </linearGradient>
  <linearGradient id="id4" gradientUnits="userSpaceOnUse" x1="1584.67" y1="1656.25" x2="1758.81" y2="1559.72">
   <stop offset="0" style="stop-color:#C6920C"/>
   <stop offset="0.2" style="stop-color:#E8DC91"/>
   <stop offset="0.501961" style="stop-color:#C38C00"/>
   <stop offset="0.721569" style="stop-color:#E8DC91"/>
   <stop offset="1" style="stop-color:#C38C00"/>
  </linearGradient>
  <linearGradient id="id5" gradientUnits="userSpaceOnUse" xlink:href="#id0" x1="1666.42" y1="1591.7" x2="1632.93" y2="1552.19">
  </linearGradient>
  <linearGradient id="id6" gradientUnits="userSpaceOnUse" xlink:href="#id0" x1="1706.33" y1="1620.78" x2="1759.83" y2="1637.18">
  </linearGradient>
  <linearGradient id="id7" gradientUnits="userSpaceOnUse" xlink:href="#id0" x1="1723.98" y1="1654.33" x2="1695.9" y2="1664.9">
  </linearGradient>
  <linearGradient id="id8" gradientUnits="userSpaceOnUse" xlink:href="#id0" x1="1618.58" y1="1592.45" x2="1625.12" y2="1562.8">
  </linearGradient>
  <linearGradient id="id9" gradientUnits="userSpaceOnUse" xlink:href="#id0" x1="1631.68" y1="1655.93" x2="1648.99" y2="1658.92">
  </linearGradient>
  <linearGradient id="id10" gradientUnits="userSpaceOnUse" xlink:href="#id0" x1="1715.28" y1="1567.69" x2="1729.93" y2="1583.72">
  </linearGradient>
 </defs>
<symbol id="Fm1-23-0" viewBox="6531 -129 545 260">
 <path class="fil0" d="M7058 -52c-9,12 -24,18 -38,21 -14,3 -28,5 -39,14 -7,5 -13,11 -20,16 -2,1 -4,0 -5,-2 -7,-38 61,-49 87,-64 4,-5 9,-9 15,-7 7,2 4,18 0,22zm16 -3c-2,-16 0,-34 0,-51 1,-3 1,-6 2,-9 0,-1 -1,-2 -2,-2 0,-4 0,-8 0,-13 -7,10 -14,19 -23,27 -13,11 -26,19 -42,26 -18,7 -42,1 -53,19 -5,8 -11,23 -21,24 -8,1 -16,-9 -20,-13 -20,-19 -41,-42 -67,-53 31,25 68,57 59,101 -10,47 -65,57 -105,62 -64,7 -131,6 -192,-16 -36,-13 -68,-34 -72,-72 -2,5 -4,11 -5,16 -1,4 -1,9 -1,12 -1,4 -1,7 -2,11 31,49 97,63 152,71 34,5 69,8 103,4 33,-5 64,-17 97,-21 2,0 4,1 4,3 -4,25 -44,30 -64,34 -48,10 -98,15 -147,4 -36,-8 -74,-13 -108,-27 -8,-4 -17,-8 -25,-13 1,2 2,4 3,6 16,24 47,35 73,41 58,15 124,17 184,14 51,-3 101,-19 136,-59 20,-23 28,-53 53,-72 22,-17 52,-21 72,-39 0,-1 0,-2 1,-3 5,-3 8,-7 9,-12l0 0z"/>
</symbol>
<symbol id="Fm0-21-0" viewBox="7162 -129 545 260">
 <path class="fil0" d="M7181 -75c6,-2 10,3 15,7 25,15 94,26 87,64 0,2 -3,3 -5,2 -7,-5 -13,-10 -20,-16 -11,-9 -26,-11 -39,-14 -14,-3 -29,-10 -38,-21 -3,-4 -7,-20 0,-22zm-17 20c2,5 5,9 9,12 1,1 1,2 1,3 20,18 51,23 72,39 25,19 33,49 53,72 35,39 85,56 136,59 60,4 125,1 184,-14 27,-7 57,-18 73,-41 1,-2 3,-4 3,-6 -8,5 -17,9 -25,13 -34,14 -72,20 -108,27 -49,11 -98,6 -147,-4 -20,-4 -60,-9 -64,-34 0,-2 2,-4 4,-3 33,4 64,16 97,21 34,5 69,2 103,-4 54,-9 120,-22 152,-71 0,-4 -1,-7 -2,-11 0,-4 0,-8 -1,-12 -1,-5 -3,-11 -5,-16 -4,38 -36,59 -72,72 -61,22 -128,23 -192,16 -41,-4 -96,-15 -105,-62 -9,-44 28,-75 59,-101 -26,11 -48,34 -67,53 -5,4 -13,15 -20,13 -11,-1 -16,-16 -21,-24 -11,-18 -35,-12 -53,-19 -15,-6 -29,-15 -42,-26 -9,-8 -17,-17 -23,-27 0,4 0,8 0,13 -1,0 -2,1 -2,2 1,3 1,6 2,9 1,17 3,34 0,51l0 0z"/>
</symbol>
 <g id="Layer_x0020_1">
  <metadata id="CorelCorpID_0Corel-Layer"/>
  <g id="_689153440">
   <path class="fil1" d="M2014 2751c0,0 -97,218 -217,305 0,0 73,-10 112,-49 0,0 -22,66 -51,119 0,0 152,-105 217,-363l-61 -12z"/>
   <path class="fil1" d="M1997 2858c0,0 20,237 -43,372 0,0 59,-44 74,-97 0,0 13,69 12,129 0,0 83,-166 16,-423l-59 19z"/>
  </g>
  <path class="fil2" d="M3546 1412l0 917c0,16 -9,25 -25,25l-113 0c-14,0 -23,-9 -23,-25l0 -924c0,-111 -47,-174 -131,-174 -81,0 -133,63 -133,174l0 924c0,16 -9,25 -23,25l-113 0c-14,0 -23,-9 -23,-25l0 -924c0,-111 -54,-174 -131,-174 -88,0 -133,63 -133,174l0 924c0,16 -9,25 -23,25l-113 0c-14,0 -23,-9 -23,-25l0 -917c0,-203 111,-334 292,-334 100,0 163,47 212,113 48,-66 113,-113 212,-113 179,0 292,131 292,334z"/>
  <path class="fil2" d="M4190 1781l0 -379c0,-108 -52,-170 -145,-170 -91,0 -145,63 -145,170l0 379 291 0zm-452 547l0 -919c0,-197 122,-330 307,-330 185,0 309,133 309,330l0 919c0,16 -9,25 -25,25l-113 0c-14,0 -25,-9 -25,-25l0 -398 -291 0 0 398c0,16 -9,25 -23,25l-115 0c-14,0 -23,-9 -23,-25z"/>
  <path class="fil2" d="M4427 2018c0,-16 7,-25 23,-25l115 0c14,0 23,7 23,23 5,126 56,205 145,205 90,0 140,-66 140,-179l0 -920c0,-14 9,-23 25,-23l113 0c16,0 25,9 25,23l0 910c0,206 -106,343 -307,343 -185,0 -298,-144 -303,-355z"/>
  <path class="fil2" d="M5679 2054l0 -657c0,-99 -61,-167 -152,-167 -92,0 -154,68 -154,179l0 631c0,111 63,179 154,179 91,0 152,-68 152,-167zm-470 -20l0 -617c0,-201 131,-337 318,-337 187,0 316,136 316,325l0 642c0,188 -129,325 -316,325 -187,0 -318,-136 -318,-337z"/>
  <path class="fil2" d="M6316 1731c93,0 152,-68 152,-174l0 -154c0,-104 -59,-172 -145,-172 -86,0 -145,68 -145,172l0 328 138 0zm-300 597l0 -919c0,-196 124,-332 305,-332 185,0 310,136 310,332l0 144c0,138 -66,239 -160,289l192 484c5,16 -7,27 -23,27l-122 0c-14,0 -22,-7 -25,-22l-170 -452 -145 0 0 448c0,16 -9,25 -23,25l-115 0c-14,0 -23,-9 -23,-25z"/>
  <path class="fil3" d="M2835 3143c93,0 149,-57 149,-154l0 -194c0,-104 -56,-172 -144,-172 -88,0 -142,68 -142,172l0 348 136 0zm-298 578l0 -919c0,-196 117,-332 301,-332 187,0 309,136 309,332l0 183c0,183 -120,309 -307,309l-142 0 0 427c0,16 -9,25 -23,25l-115 0c-14,0 -23,-9 -23,-25z"/>
  <path class="fil3" d="M3743 3173l0 -379c0,-108 -52,-170 -145,-170 -91,0 -145,63 -145,170l0 379 291 0zm-452 547l0 -919c0,-197 122,-330 307,-330 185,0 309,133 309,330l0 919c0,16 -9,25 -25,25l-113 0c-14,0 -25,-9 -25,-25l0 -398 -291 0 0 398c0,16 -9,25 -23,25l-115 0c-14,0 -23,-9 -23,-25z"/>
  <path class="fil3" d="M4290 3720l0 -386c-135,-32 -224,-154 -224,-310l0 -511c0,-14 9,-23 25,-23l113 0c14,0 25,9 25,23l0 518c0,93 56,163 142,163 86,0 144,-70 144,-163l0 -518c0,-14 9,-23 23,-23l113 0c16,0 25,9 25,23l0 511c0,156 -88,278 -224,310l0 386c0,16 -9,25 -23,25l-113 0c-16,0 -25,-9 -25,-25z"/>
  <path class="fil3" d="M5290 3446l0 -657c0,-99 -61,-167 -152,-167 -92,0 -154,68 -154,179l0 631c0,111 63,179 154,179 91,0 152,-68 152,-167zm-470 -20l0 -617c0,-201 131,-337 318,-337 187,0 316,136 316,325l0 642c0,188 -129,325 -316,325 -187,0 -318,-136 -318,-337z"/>
  <path class="fil3" d="M5627 3720l0 -910c0,-185 124,-321 305,-321l158 0c16,0 25,9 25,23l0 102c0,16 -9,25 -25,25l-145 0c-93,0 -156,72 -156,174l0 233 267 0c14,0 23,9 23,23l0 102c0,14 -9,23 -23,23l-267 0 0 524c0,16 -9,25 -23,25l-115 0c-14,0 -23,-9 -23,-25z"/>
  <path class="fil3" d="M6239 3720l0 -910c0,-185 124,-321 305,-321l158 0c16,0 25,9 25,23l0 102c0,16 -9,25 -25,25l-145 0c-93,0 -156,72 -156,174l0 233 267 0c14,0 23,9 23,23l0 102c0,14 -9,23 -23,23l-267 0 0 524c0,16 -9,25 -23,25l-115 0c-14,0 -23,-9 -23,-25z"/>
  <path class="fil4" d="M3253 1078c-99,0 -163,47 -212,113 -48,-66 -111,-113 -212,-113 -181,0 -292,131 -292,334l0 69c51,13 104,25 160,36l0 -113c0,-111 45,-174 133,-174 77,0 131,63 131,174l0 162c52,8 105,17 160,24l0 -186c0,-111 52,-174 133,-174 84,0 131,63 131,174l0 220c53,6 107,11 161,17l0 -229c0,-203 -113,-334 -292,-334z"/>
  <path class="fil4" d="M4045 1080c-185,0 -307,133 -307,330l0 247c53,4 107,8 161,11l0 -266c0,-108 54,-170 145,-170 93,0 145,63 145,170l0 281c54,2 108,4 163,6l0 -280c0,-197 -124,-330 -309,-330z"/>
  <path class="fil4" d="M5011 1098l-113 0c-16,0 -25,9 -25,23l0 574c55,0 109,-1 163,-2l0 -571c0,-14 -9,-23 -25,-23z"/>
  <path class="fil4" d="M5526 1080c-187,0 -318,136 -318,337l0 271c55,-2 109,-4 163,-6l0 -272c0,-111 63,-179 154,-179 91,0 152,68 152,167l0 267c55,-4 110,-8 163,-13l0 -247c0,-188 -129,-325 -316,-325z"/>
  <path class="fil4" d="M6178 1403c0,-104 59,-172 145,-172 86,0 145,68 145,172l0 154c0,8 0,15 -1,22 56,-9 111,-18 164,-27l0 -142c0,-196 -126,-332 -310,-332 -181,0 -305,136 -305,332l0 226c55,-6 109,-11 161,-18l0 -215z"/>
  <path class="fil5" d="M2839 2470c-167,0 -278,112 -298,278 51,15 104,30 158,44 1,-103 54,-170 142,-170 88,0 144,68 144,172l0 63c53,11 108,21 163,31l0 -87c0,-196 -122,-332 -309,-332z"/>
  <path class="fil5" d="M3598 2472c-185,0 -307,133 -307,330l0 111c53,8 107,16 161,23l0 -141c0,-108 54,-170 145,-170 93,0 145,63 145,170l0 174c54,5 108,10 163,14l0 -182c0,-197 -124,-330 -309,-330z"/>
  <path class="fil5" d="M4229 2513c0,-14 -11,-23 -25,-23l-113 0c-16,0 -25,9 -25,23l0 482c54,3 108,6 163,9l0 -490z"/>
  <path class="fil5" d="M4651 2490l-113 0c-14,0 -23,9 -23,23l0 499c51,1 103,1 155,1 2,0 4,0 7,0l0 -500c0,-14 -9,-23 -25,-23z"/>
  <path class="fil5" d="M5137 2472c-187,0 -318,136 -318,337l0 203c55,-1 109,-2 163,-4l0 -206c0,-111 63,-179 154,-179 91,0 152,68 152,167l0 204c55,-3 109,-7 163,-12l0 -185c0,-188 -129,-325 -316,-325z"/>
  <path class="fil5" d="M5944 2640l145 0c16,0 25,-9 25,-25l0 -102c0,-14 -9,-23 -25,-23l-158 0c-181,0 -305,136 -305,321l0 155c55,-5 108,-11 161,-18l0 -134c0,-102 63,-174 156,-174z"/>
  <path class="fil5" d="M6400 2814c0,-102 63,-174 156,-174l145 0c16,0 25,-9 25,-25l0 -102c0,-14 -9,-23 -25,-23l-158 0c-181,0 -305,136 -305,321l0 70c55,-10 109,-21 161,-32l0 -34z"/>
  <path class="fil6" d="M1611 636c0,48 39,87 87,87 48,0 87,-39 87,-87 0,-48 -39,-87 -87,-87 -48,0 -87,39 -87,87z"/>
  <path class="fil6" d="M892 636c0,48 39,87 87,87 48,0 87,-39 87,-87 0,-48 -39,-87 -87,-87 -48,0 -87,39 -87,87z"/>
  <path class="fil7" d="M1726 441l0 316c0,184 -149,334 -334,334l-108 0c-184,0 -334,-149 -334,-334l0 -316 775 0z"/>
  <path class="fil8" d="M1726 441l0 316c0,184 -149,334 -334,334l-108 0c-184,0 -334,-149 -334,-334l0 -316 775 0z"/>
  <path class="fil9" d="M1106 732c0,41 33,74 74,74 41,0 74,-33 74,-74 0,-41 -33,-74 -74,-74 -41,0 -74,33 -74,74z"/>
  <path class="fil10" d="M1181 690c4,0 8,1 12,2 -7,3 -12,11 -12,19 0,12 10,21 21,21 9,0 16,-5 19,-12 1,4 2,8 2,12 0,24 -19,43 -43,43 -24,0 -43,-19 -43,-43 0,-24 19,-43 43,-43z"/>
  <path class="fil9" d="M1422 732c0,41 33,74 74,74 41,0 74,-33 74,-74 0,-41 -33,-74 -74,-74 -41,0 -74,33 -74,74z"/>
  <path class="fil10" d="M1496 690c4,0 8,1 12,2 -7,3 -12,11 -12,19 0,12 10,21 21,21 9,0 16,-5 19,-12 1,4 2,8 2,12 0,24 -19,43 -43,43 -24,0 -43,-19 -43,-43 0,-24 19,-43 43,-43z"/>
  <path class="fil10" d="M1615 624c-30,1 -100,6 -171,35 -7,3 -14,-1 -16,-8l-7 -24c-1,-4 1,-9 5,-10 27,-9 125,-37 191,-2 4,2 3,8 -2,8z"/>
  <path class="fil10" d="M1061 626c30,0 100,4 172,33 7,3 14,-1 16,-8l7 -24c1,-4 -1,-9 -5,-10 -28,-9 -125,-35 -191,1 -4,2 -2,8 2,8z"/>
  <path class="fil10" d="M950 485l0 -44 309 0 157 0 309 0 0 44 0 0 0 237c3,-157 -187,-165 -187,-165l0 0c-57,10 -123,15 -200,15 -78,0 -143,-5 -200,-15l0 0c0,0 -190,8 -187,165l0 -237 0 0z"/>
  <polygon class="fil3" points="1338,0 744,165 744,192 1338,358 1932,192 1932,165 "/>
  <polygon class="fil3" points="1832,686 1859,686 1859,199 1832,199 "/>
  <path class="fil3" d="M1874 750c3,-3 5,-6 8,-9 12,-17 18,-32 19,-46 0,-2 5,-50 -33,-67 0,0 0,0 -1,0 -1,0 -2,-1 -3,-1 -8,-3 -15,-4 -19,-4l0 0c-3,0 -6,0 -6,0 -34,6 -46,27 -47,52 0,0 0,0 0,1 0,2 0,5 0,7 1,12 4,32 28,49 0,0 17,13 7,31 0,0 -5,8 -16,13l0 0c31,0 51,-11 64,-24l0 0c0,0 0,0 0,-1z"/>
  <polygon class="fil5" points="1338,0 985,160 1338,320 744,165 "/>
  <path class="fil3" d="M933 274l0 181c98,49 216,82 406,82 190,0 308,-33 406,-82l0 -181 -406 117 -406 -117z"/>
  <path class="fil5" d="M1159 392l-227 -73 0 113c0,0 157,77 350,82 -89,-45 -123,-123 -123,-123z"/>
  <path class="fil8" d="M607 564c0,0 33,-26 56,-52 23,-26 77,-88 95,-99 19,-11 238,-72 273,-88 35,-16 62,1 42,31 -16,24 -90,61 -121,76 -8,4 -13,6 -14,6l0 0c0,0 0,0 0,0 3,2 34,21 10,50 -25,30 -67,50 -103,65 0,0 -19,15 -29,35 -10,20 -42,94 -102,111 -60,17 -122,41 -152,31 -14,-5 -58,-24 -101,-44l146 -122z"/>
  <path class="fil6" d="M951 431c-8,4 -13,6 -14,6l0 0c0,0 -21,-8 -51,12 0,0 -29,7 -55,20 -26,13 -30,25 -65,42 -35,17 -71,49 -71,49 0,0 125,-153 255,-128z"/>
  <polygon class="fil6" points="1456,879 1670,1050 1338,1482 1045,1223 1065,899 "/>
  <path class="fil4" d="M1843 2351c14,18 31,33 46,50 13,15 27,27 40,43 5,6 11,16 17,25 0,-2 1,-3 1,-5 28,-148 38,-562 38,-562l-10 -81c-5,11 -9,21 -14,32 -11,29 -23,57 -37,84 -9,16 -18,32 -24,50 -23,44 -35,97 -47,144 -8,28 -17,56 -24,85 -2,10 -3,19 -3,29 0,21 -4,40 -7,61 0,1 0,2 0,3 -1,1 -1,1 -2,2 13,10 15,27 25,40zm-1835 -1282c8,-34 30,-59 48,-88 16,-26 29,-58 51,-80 22,-23 49,-38 77,-54 29,-17 52,-39 76,-62 19,-24 40,-47 62,-69 22,-22 43,-43 58,-71 7,-14 18,-27 36,-26 10,1 19,2 28,6 10,5 16,12 25,19 15,-13 29,-24 44,-36 12,-9 24,-22 39,-27 13,-4 21,-1 33,1 2,1 2,3 1,4 6,29 10,58 26,84 10,15 25,34 44,38 7,2 15,4 21,4 3,0 9,-4 14,-7 0,1 1,2 2,3 0,0 1,1 1,1 -1,2 -2,3 -4,4 0,1 0,2 0,3 -13,22 -33,34 -53,49 -19,14 -36,31 -56,44 0,0 0,1 1,1 4,19 16,40 4,59 -10,13 -27,18 -40,27 -35,24 -55,59 -73,96 3,3 9,6 14,7 1,1 1,2 3,2 72,26 145,46 221,57 1,1 2,1 3,1 28,4 56,6 84,8 1,1 1,2 2,4 8,-1 16,-2 24,-3 32,1 64,-1 95,-5 3,0 4,-2 4,-4 13,-2 26,-4 39,-7 4,-1 5,-4 4,-7 1,0 2,0 3,-1 1,-3 2,-5 4,-6 10,-11 20,-24 30,-36 8,-10 19,-20 26,-31 2,-2 4,-2 6,-2 3,-2 5,-3 9,-2 5,0 10,4 13,8 4,5 6,12 8,18l226 230c11,11 20,24 31,34l19 28 0 0 19 -28c12,-10 20,-23 31,-34l226 -230c2,-6 4,-13 8,-18 3,-4 7,-8 13,-8 4,-1 6,0 9,2 2,-1 4,0 6,2 7,11 18,21 26,31 10,12 19,24 30,36 1,2 3,4 4,6 1,0 2,0 3,1 -1,3 1,6 4,7 13,3 26,5 39,7 0,2 2,3 4,4 6,1 11,1 17,2 19,9 39,17 60,21 44,9 88,19 132,29 41,10 83,21 124,33 35,10 69,23 106,25 25,67 48,134 53,206 3,40 8,80 13,119 -1,1 -2,1 -2,2 21,160 2,425 2,425l-21 330c0,0 -27,264 -57,335 -30,72 -57,56 -57,56l-15 58c-4,17 -21,27 -38,23l-109 -26c-16,-4 -26,-19 -24,-35l7 -46c0,0 -29,1 -16,-82 0,0 0,0 0,0 -14,11 -30,20 -46,29 -2,-1 -5,-1 -7,2 0,0 -1,1 -1,1 -23,9 -44,20 -66,31 -15,6 -30,11 -44,17 -29,11 -58,23 -87,34 -27,10 -55,16 -83,26 -26,9 -51,20 -77,28 -35,10 -71,12 -106,21 -11,2 -22,5 -33,6 -24,2 -20,-2 -25,-20 -5,-21 -10,-43 -20,-62l0 2 -1 -12 0 0 -1 12 0 -2c-10,19 -14,41 -20,62 -5,18 -1,22 -25,20 -11,-1 -22,-3 -33,-6 -35,-8 -71,-11 -106,-21 -26,-7 -51,-19 -77,-28 -27,-9 -56,-15 -83,-26 -29,-11 -58,-23 -87,-34 -15,-6 -30,-11 -44,-17 -22,-11 -43,-23 -66,-31 0,0 -1,-1 -1,-1 -2,-3 -5,-3 -7,-2 -15,-8 -29,-16 -42,-26 -15,-11 -34,-22 -46,-37 -3,-3 2,-8 5,-5 0,0 1,0 1,0 16,-10 32,-40 43,-55 12,-16 27,-27 40,-43 15,-17 32,-32 46,-50 10,-13 12,-30 25,-40 -1,-1 -1,-1 -2,-2 0,-1 0,-2 0,-3 -3,-14 -7,-27 -7,-41 0,-19 1,-33 -2,-48 -6,-29 -16,-57 -24,-85 -12,-47 -24,-100 -47,-144 -7,-17 -15,-33 -24,-50 -15,-27 -26,-55 -37,-84 -19,-50 -43,-94 -75,-137 -2,-2 -4,-3 -6,-2 -13,-19 -26,-37 -39,-56 -32,-46 -71,-83 -117,-115 -83,-59 -167,-117 -246,-181 -1,1 -2,1 -3,0 -31,-26 -62,-52 -95,-77 -23,-18 -48,-37 -65,-61 -18,-25 -23,-55 -38,-82 -12,-23 -29,-47 -22,-74z"/>
  <path class="fil11" d="M1293 4109c-2,-16 0,-34 0,-51 1,-3 1,-6 2,-9 0,-1 -1,-2 -2,-2 0,-25 3,-49 3,-73 0,-20 -1,-41 -6,-60 -8,-28 -16,-51 -13,-80 6,-51 14,-103 21,-154 3,-27 7,-54 9,-82 2,-25 2,-51 4,-77 1,0 2,-1 1,-2 -2,-15 -21,-19 -33,-21 -32,-7 -64,-12 -96,-14 -27,-2 -54,-1 -80,7 -2,0 -3,1 -4,2 -1,-2 -3,-1 -3,1l0 0c-9,4 -17,8 -24,14 -7,6 -6,11 -5,19 0,1 1,1 1,1 3,18 7,35 11,53 4,23 6,46 9,69 6,44 18,86 20,130 1,20 1,41 0,62 -2,23 -10,40 -24,58 -26,33 -55,71 -97,86 -18,6 -37,6 -56,7 -19,1 -35,6 -52,14 -31,15 -60,38 -83,65 -20,22 -39,54 -46,83 -1,4 -1,9 -1,12 -6,25 -2,51 12,73 16,24 47,35 73,41 58,15 124,17 184,14 51,-3 101,-19 136,-59 20,-23 28,-53 53,-72 22,-17 52,-21 72,-39 0,-1 0,-2 1,-3 5,-3 8,-7 9,-12l0 0z"/>
  <g id="_525339040">
   <path class="fil12" d="M1276 4090c-6,-2 -10,3 -15,7 -25,15 -94,26 -87,64 0,2 3,3 5,2 7,-5 13,-10 20,-16 11,-9 26,-11 39,-14 14,-3 29,-10 38,-21 3,-4 7,-20 0,-22zm17 20c-2,5 -5,9 -9,12 -1,1 -1,2 -1,3 -20,18 -51,23 -72,39 -25,19 -33,49 -53,72 -35,39 -85,56 -136,59 -60,4 -125,1 -184,-14 -27,-7 -57,-18 -73,-41 -1,-2 -3,-4 -3,-6 8,5 17,9 25,13 34,14 72,20 108,27 49,11 98,6 147,-4 20,-4 60,-9 64,-34 0,-2 -2,-4 -4,-3 -33,4 -64,16 -97,21 -34,5 -69,2 -103,-4 -54,-9 -120,-22 -152,-71 0,-4 1,-7 2,-11 0,-4 0,-8 1,-12 1,-5 3,-11 5,-16 4,38 36,59 72,72 61,22 128,23 192,16 41,-4 96,-15 105,-62 9,-44 -28,-75 -59,-101 26,11 48,34 67,53 5,4 13,15 20,13 11,-1 16,-16 21,-24 11,-18 35,-12 53,-19 15,-6 29,-15 42,-26 9,-8 17,-17 23,-27 0,4 0,8 0,13 1,0 2,1 2,2 -1,3 -1,6 -2,9 -1,17 -3,34 0,51l0 0z"/>
  </g>
  <path class="fil13" d="M1070 3528c3,18 7,35 11,53 1,5 1,9 2,13 12,4 23,9 36,12 1,0 3,2 3,4 -1,5 -2,9 -6,13 -3,4 -8,7 -11,11 -4,6 -4,13 0,19 6,0 11,0 16,0 2,-1 5,0 5,2 0,8 -4,17 -7,24 -2,5 -5,12 -5,17 -1,8 6,3 11,1 2,-1 3,0 4,2 4,7 7,14 3,21 -3,5 -8,9 -10,15 -2,6 -4,23 10,17 2,-1 4,0 4,2 1,6 2,14 -1,20 -4,8 -10,16 -11,25 0,9 16,10 19,20 3,9 -4,19 -8,27 -4,9 -17,28 1,28 2,0 3,2 3,4 -3,8 -13,14 -20,19 -8,5 -31,19 -14,26 2,1 3,4 1,5 -8,6 -17,9 -26,12 -8,3 -35,12 -23,23 1,1 0,4 -1,4 -9,6 -18,13 -29,16 -4,1 -23,4 -14,14 1,1 1,3 -1,4 -5,3 -10,6 -16,7 -2,0 -32,-1 -24,9 1,1 1,2 0,3 18,7 37,14 56,19 20,5 34,-8 49,-20 11,-9 22,-22 35,-28 3,-1 7,-1 10,0 8,3 13,-10 16,-15 5,-8 13,-21 23,-24 4,-1 8,-2 13,-2 1,0 1,0 2,0 9,-1 16,-3 16,-15 0,-11 2,-22 10,-31 9,-9 37,-15 28,-33 -4,-9 -16,-19 -14,-31 1,-9 8,-13 14,-19 28,-23 -24,-32 -11,-56 3,-6 20,-17 18,-23 -3,-10 -19,-19 -18,-29 1,-7 11,-9 14,-16 5,-13 -8,-25 -8,-38 0,-1 1,-3 2,-3 23,-2 0,-34 -4,-45 -1,-2 1,-4 3,-4 15,3 46,3 50,23 3,14 -1,29 -3,43 -3,16 -5,32 -7,47 -5,35 -9,72 -7,108 1,20 6,38 19,54 3,4 6,9 9,13 -6,-20 -10,-39 -7,-62 6,-51 14,-103 21,-154 3,-27 7,-54 9,-82 2,-25 2,-51 4,-77 1,0 2,-1 1,-2 -2,-15 -21,-19 -33,-21 -32,-7 -64,-12 -96,-14 -27,-2 -54,-1 -80,7 -2,0 -3,1 -4,2 -1,-2 -3,-1 -3,1l0 0c-9,4 -17,8 -24,14 -7,6 -6,11 -5,19 0,1 1,1 1,1z"/>
  <path class="fil13" d="M783 4249c27,20 63,28 96,32 53,7 109,11 161,4 54,-8 104,-31 131,-81 11,-20 22,-39 43,-51 12,-7 25,-12 37,-18 14,-7 25,-15 37,-25 -2,-13 0,-26 0,-39 -6,9 -15,16 -26,22 -12,7 -24,13 -37,17 -12,4 -25,4 -37,8 -27,10 -32,40 -44,63 -10,18 -27,33 -45,43 -45,25 -97,27 -147,24 -29,-2 -60,-4 -89,-11 -22,-6 -48,-15 -68,-28 -15,-8 -31,-17 -39,-31 0,26 5,53 27,70zm509 -264c1,-29 0,-55 -9,-83 -7,-21 -12,-40 -10,-63 6,-53 13,-106 20,-159 7,-53 10,-106 18,-158 -1,0 -1,-1 -1,-1 -5,-16 -32,-18 -46,-21 -22,-4 -44,-7 -66,-9 0,12 4,23 5,35 2,13 3,26 4,39 3,27 5,54 6,82 0,27 1,55 2,82 1,13 1,26 2,39 0,6 0,11 -1,17 1,0 1,1 1,2 -1,32 -7,63 -13,94 -5,25 -12,45 -30,64 -38,40 -87,70 -132,102 25,12 51,27 69,48 16,18 33,43 36,67 0,-1 1,-2 1,-2 7,-16 14,-30 30,-40 8,-5 16,-6 24,-8 13,-3 26,-8 38,-14 20,-10 38,-20 47,-40 1,-24 2,-48 3,-72zm-98 -495c-22,-2 -45,-3 -67,1 -6,1 -15,3 -24,6 14,55 21,112 27,167 6,55 14,111 15,167 1,24 -1,49 -12,71 -9,17 -26,29 -41,39 -21,15 -38,33 -58,48 -9,6 -18,13 -28,18 -7,4 -13,7 -20,11 -1,0 -4,2 -7,3 20,5 40,11 60,20 0,0 1,-1 1,-1 0,-1 1,-1 1,-1 21,-16 44,-30 65,-47 21,-16 43,-33 62,-51 11,-11 22,-24 26,-40 4,-13 6,-26 8,-39 5,-24 9,-47 11,-71 -2,-11 -1,-24 -2,-35 -1,-13 -2,-26 -2,-40 -1,-27 -2,-55 -2,-82 -1,-28 -5,-55 -7,-82 -1,-12 -1,-25 -3,-37 -2,-9 -4,-17 -3,-26zm-95 8c-14,5 -26,13 -27,26 11,41 17,82 24,124 6,41 18,82 21,124 2,33 6,74 -9,105 -7,15 -19,28 -29,41 -11,13 -23,27 -36,39 -13,12 -29,25 -46,32 -15,5 -31,7 -47,8 -19,1 -38,3 -56,12 -7,3 -14,7 -20,11 8,-2 15,-4 24,-5 17,-1 34,0 51,2 7,1 15,2 23,3 4,-2 9,-5 13,-7 13,-7 26,-14 38,-22 20,-14 36,-32 56,-46 19,-14 43,-27 53,-50 12,-27 10,-58 8,-87 -8,-104 -22,-208 -40,-311zm-253 541c-31,24 -54,52 -72,87 -7,13 -18,33 -11,48 9,18 27,26 42,37 0,0 1,1 1,1 47,19 96,28 147,30 48,2 100,1 144,-24 22,-13 38,-29 49,-51 -17,-60 -60,-98 -116,-122 -19,-8 -38,-15 -58,-19 0,0 0,0 0,0l-6 -2c-8,-2 -16,-3 -24,-3 -17,-2 -38,-5 -54,-1 -9,2 -17,4 -26,7 -5,4 -10,8 -15,11zm-93 127c0,-4 0,-8 1,-12 7,-29 26,-61 46,-83 23,-26 52,-49 83,-65 17,-8 33,-13 52,-14 19,-1 38,-1 56,-7 41,-15 70,-53 97,-86 14,-18 22,-35 24,-58 2,-21 2,-42 0,-62 -2,-44 -14,-86 -20,-130 -3,-23 -5,-46 -10,-69 -4,-18 -8,-35 -11,-53 -1,0 -1,0 -1,-1 -2,-8 -3,-14 5,-19 7,-6 16,-10 24,-14l0 0c0,-2 2,-2 3,-1 1,-1 3,-1 4,-2 25,-8 53,-9 80,-7 32,3 65,7 96,14 12,3 31,6 33,21 0,1 0,2 -1,2 -2,26 -2,52 -4,77 -2,28 -6,55 -9,82 -6,51 -15,103 -21,154 -3,29 4,53 13,80 6,19 7,40 6,60 -1,24 -3,49 -3,73 1,0 2,1 2,2 -1,3 -1,6 -2,9 -1,17 -3,34 0,51l0 0c-2,5 -5,9 -9,12 -1,1 -1,2 -1,3 -20,18 -51,23 -72,39 -25,19 -33,49 -53,72 -35,39 -85,56 -136,59 -60,4 -125,1 -184,-14 -27,-7 -57,-18 -73,-41 -14,-21 -18,-48 -12,-73z"/>
  <path class="fil13" d="M1177 3743l3 -2c4,-2 8,-4 12,-6 -6,-5 -12,-10 -18,-14 -7,4 -14,8 -21,12 7,3 14,7 20,11 1,-1 3,-2 4,-2zm15 -110c-7,-3 -14,-7 -22,-10l-6 3c-3,1 -6,3 -8,4 7,2 13,5 19,7 6,-2 12,-4 17,-5zm-17 37c-9,4 -17,8 -25,12 8,3 15,6 22,9 7,-3 13,-6 20,-8 -5,-5 -11,-9 -17,-12zm-3 139c2,-1 4,-2 5,-2l0 0c3,-1 7,-3 10,-4 1,0 2,-1 3,-1 -2,-3 -5,-5 -7,-8 -2,-2 -4,-5 -6,-7 -2,-2 -5,-5 -7,-7 -7,5 -15,9 -22,14l-1 0c8,4 16,9 25,16zm-62 143c-9,1 -18,2 -26,4 1,3 3,7 4,11 2,0 3,0 5,0 5,0 11,0 17,1 0,-5 0,-11 0,-16zm52 -80c11,-3 20,-4 31,-5 -5,-7 -12,-13 -18,-19 -3,-2 -5,-5 -7,-7 -7,4 -13,8 -20,13l-3 2c4,2 8,5 11,9 2,2 4,4 6,7zm-9 35l-2 -3c-6,2 -12,5 -18,7 -2,1 -5,2 -7,3 1,3 3,6 4,9 1,0 3,0 4,0 3,0 6,0 9,0 6,0 13,0 20,1 -3,-6 -6,-12 -10,-18zm-85 102c0,-3 -1,-6 -2,-9l-1 -7c-7,0 -14,0 -20,1 -2,0 -4,0 -5,0 2,3 3,6 5,9 8,1 16,3 24,5zm-98 -4l0 0c13,-4 28,-5 44,-5 -1,-2 -2,-5 -3,-7 -3,-1 -5,-4 -5,-7 0,-2 0,-4 2,-6 1,-3 4,-6 7,-8 3,-1 6,-1 9,1 13,-4 24,-6 36,-7 0,-2 -1,-4 -1,-6 -3,0 -6,-3 -7,-6 -1,-4 0,-9 4,-11 0,-3 2,-5 5,-7 3,-1 6,-1 9,0 12,-5 24,-8 36,-10 0,-1 0,-3 -1,-4 -3,0 -7,-2 -8,-6 -2,-4 -1,-8 3,-11 1,-1 2,-1 3,-2 1,-1 1,-3 3,-4 2,-1 4,-2 6,-2 8,-6 17,-11 26,-15 -1,-2 -3,-3 -4,-5 -2,-2 -4,-3 -5,-5 -3,-2 -5,-4 -7,-7 -3,-1 -6,-3 -7,-7 -1,-4 1,-9 5,-11 4,-2 8,-6 12,-11 4,-4 8,-9 13,-12 1,-1 2,-1 3,-2 -7,-6 -14,-11 -23,-15 -3,0 -6,-1 -8,-4 -2,-3 -2,-7 0,-10 1,-2 2,-4 4,-5 8,-10 18,-19 29,-27 -2,-1 -4,-3 -5,-4 -3,-2 -7,-4 -10,-6 -2,-1 -3,-2 -5,-3 -2,1 -5,3 -7,4 -4,2 -9,1 -12,-3 -3,-4 -3,-10 1,-13l2 -2c0,-2 0,-4 1,-6 2,-4 7,-6 11,-5 7,-7 15,-13 22,-18 -4,-2 -8,-4 -13,-6 -3,-1 -7,-3 -10,-4l-4 2c-3,2 -7,1 -10,-1 -3,-3 -4,-7 -2,-10 0,0 0,0 0,0 -3,-3 -4,-7 -2,-10 2,-5 7,-7 12,-6l1 0c6,-6 12,-11 21,-17 -4,-2 -9,-3 -13,-5 -3,2 -6,4 -8,7 -3,3 -8,2 -12,-1 -3,-3 -4,-7 -2,-11 1,-2 2,-3 3,-5 -1,-1 -2,-1 -3,-2 -4,-2 -5,-7 -4,-11 2,-4 6,-7 11,-7 4,1 8,2 12,2 4,-4 9,-7 15,-11 -2,-1 -4,-1 -6,-2 -14,-4 -28,-9 -40,-17 -3,-2 -4,-5 -3,-9 1,-3 4,-6 8,-6 21,-1 48,4 75,14 5,-3 10,-6 16,-7 3,-1 6,-2 10,-3 5,-1 9,-3 13,-4 6,-3 13,-1 16,5 4,6 3,13 -2,18 -5,5 -11,6 -17,8 0,0 -1,0 -1,0 9,5 16,10 22,15 3,3 5,7 4,11 2,2 4,5 4,8 1,5 -2,10 -6,12 -6,4 -12,6 -20,8 8,6 14,14 17,22 4,5 4,11 0,16 -6,8 -13,9 -20,11 -1,0 -1,0 -2,0 7,6 14,12 21,18 1,0 1,0 2,0 3,0 6,2 8,4l1 0 1 4c2,7 -1,14 -7,17 -4,2 -9,2 -13,3 -4,0 -7,1 -10,2 -4,2 -9,4 -14,6 2,2 3,3 5,5 7,7 15,14 20,22 2,0 4,0 5,0 5,1 10,4 12,9 0,1 1,2 1,2 1,3 1,8 -1,11 -2,3 -4,4 -6,5 -2,1 -4,1 -6,1 -2,2 -5,4 -8,4 -3,0 -5,0 -8,-1 -1,0 -1,0 -2,1 -4,2 -8,3 -12,4 1,1 2,2 3,3 11,10 22,20 26,36 1,2 1,5 0,7 1,4 1,8 -1,12 -2,4 -6,7 -11,7l-4 0c-10,1 -19,1 -28,3 8,13 17,29 17,47l0 1 0 0c0,4 -2,8 -5,11 -4,3 -8,4 -12,3 -3,0 -6,-2 -9,-4 -8,-4 -24,-5 -36,-5 0,1 0,2 0,3 0,2 0,5 0,8 0,5 1,11 1,17 0,0 0,0 0,0 4,4 5,10 3,15 -1,3 -4,6 -7,7 -2,5 -7,7 -12,7 -5,0 -10,-4 -11,-9 -2,0 -5,-1 -7,-1 -3,-1 -6,-1 -10,-2l1 3c2,11 5,21 4,32 0,2 -1,3 -1,3l-1 2c-2,3 -4,5 -7,6l-1 1 -1 0c-2,0 -4,0 -6,0 -7,-1 -15,-3 -22,-6 0,0 -1,0 -1,0 1,3 1,5 2,8 1,5 0,9 -4,12 -3,2 -6,4 -10,4 -1,0 -3,0 -4,-1 -5,-2 -8,-5 -9,-10 -1,-6 -3,-13 -5,-18 -3,0 -6,0 -9,-1 -16,-1 -33,-2 -48,-6 -4,-1 -7,-4 -7,-9 0,-5 3,-9 8,-10z"/>
  <path class="fil11" d="M1076 4016c-1,-6 -2,-13 -3,-19 -1,-4 -1,-8 -2,-12 -14,0 -28,1 -41,2 4,6 8,13 11,20 12,2 24,5 35,9zm39 -42c0,-8 1,-16 0,-23 0,-2 0,-4 0,-6 -14,0 -27,3 -40,5 3,6 6,14 8,21 10,1 22,0 32,3zm19 -45c11,0 26,0 38,2 -4,-13 -11,-24 -18,-35 0,0 0,0 0,0 -12,4 -24,10 -36,15 3,6 5,12 7,19 3,0 5,0 8,0zm68 -58c-4,-13 -22,-26 -31,-36 -1,-1 -1,-1 -2,-2 -11,6 -20,13 -31,20 -1,1 -3,2 -4,2 6,4 13,8 18,13 3,3 6,6 9,9 14,-5 27,-5 42,-6zm-22 -60c6,-3 13,-6 20,-9 -5,-8 -12,-15 -19,-22 -3,-4 -7,-7 -10,-11 -12,7 -24,16 -36,23 13,5 25,13 36,22 3,-1 6,-3 8,-4zm0 -64c8,-4 16,-8 24,-11 -9,-8 -19,-16 -29,-23 0,0 -1,0 -1,1 -11,6 -22,13 -33,20 11,5 22,10 32,18 2,-1 5,-3 7,-4zm24 -63c-8,-10 -18,-17 -28,-22 0,0 0,0 0,0 -14,6 -27,12 -40,19 13,4 25,9 37,14 10,-5 20,-9 31,-11zm6 -50c-13,-7 -26,-13 -40,-19 0,0 0,0 0,0 -10,5 -20,11 -29,16 12,3 23,7 34,12 11,-4 23,-8 34,-9 0,0 1,0 1,0zm-238 375c16,-4 34,-5 52,-4 -3,-6 -5,-13 -8,-19 0,0 -1,0 -1,0 -2,0 -3,-4 -1,-5 0,0 0,0 0,0 0,-5 6,-8 9,-3 0,0 0,0 0,0 14,-5 29,-8 44,-9 -1,-6 -2,-12 -4,-18 -1,0 -2,0 -3,1 -4,1 -5,-5 -2,-7 1,-1 2,-1 3,-2 0,0 0,-1 0,-1 -1,-4 4,-5 6,-3 0,0 0,0 1,1 14,-7 29,-10 44,-12 -1,-5 -2,-11 -3,-16 -1,0 -2,1 -3,1 -4,1 -7,-3 -3,-6 2,-1 3,-2 5,-3 0,-3 2,-4 5,-3 11,-8 21,-13 33,-19 -2,-4 -5,-8 -8,-11 -5,-5 -10,-8 -14,-14 0,0 -1,0 -1,0 -4,0 -3,-5 -1,-7 10,-5 16,-17 26,-23 3,-2 6,-4 10,-5 -10,-9 -20,-18 -32,-23 -3,1 -6,-2 -4,-5 0,0 0,0 0,-1 0,-1 1,-3 3,-3 10,-12 22,-23 35,-32 -4,-3 -8,-6 -12,-9 -6,-4 -12,-7 -18,-10 -3,2 -6,4 -10,5 -4,2 -7,-4 -4,-6 2,-2 3,-3 5,-5 0,0 0,0 0,0 -3,-3 0,-7 3,-6 1,0 2,1 3,1 10,-9 21,-18 32,-25 -11,-6 -23,-11 -35,-16 -2,1 -5,3 -7,4 -2,1 -4,-1 -3,-3 1,-2 2,-3 3,-5 -1,-1 -2,-1 -3,-2 -4,-2 0,-7 3,-6 1,0 3,1 4,1 9,-11 21,-18 34,-24 -9,-4 -19,-7 -28,-11 -4,3 -8,6 -11,9 -2,2 -6,-1 -5,-4 2,-4 5,-7 7,-10 -3,-2 -6,-3 -9,-5 -3,-2 -1,-7 3,-7 5,1 10,2 15,3 8,-7 17,-14 27,-19 -2,-1 -5,-2 -7,-3 -17,-6 -35,-9 -50,-20 -1,-1 0,-4 1,-4 22,-1 50,5 75,14 6,-3 11,-7 17,-8 8,-3 16,-4 23,-8 8,-4 14,7 8,13 -5,5 -12,5 -19,7 -3,1 -6,3 -10,4 12,6 24,13 33,20 3,3 3,6 1,9 0,0 0,0 1,0 5,2 7,9 2,13 -8,6 -19,8 -31,10 10,7 23,17 25,28 2,2 3,6 1,10 -4,5 -9,7 -16,8 -5,1 -10,2 -15,4 11,7 22,16 32,26 0,0 0,0 0,0 1,0 3,0 4,0 2,0 5,2 6,4l0 0c1,4 0,8 -4,10 -7,3 -15,2 -23,5 -7,3 -15,6 -22,10 1,1 2,2 3,3 8,9 22,20 30,33 3,0 5,0 8,0 3,0 6,2 7,5 0,1 0,1 0,2 1,3 0,8 -4,9 -2,1 -5,1 -7,2 -2,4 -7,5 -11,2 0,0 0,0 0,0 -2,0 -4,1 -5,2 -7,3 -14,5 -21,8 1,0 1,1 2,1 13,13 28,23 33,41 1,2 0,4 -1,5 3,5 2,12 -5,13 -15,1 -28,2 -42,4 0,0 0,1 1,1 10,15 20,32 20,51 0,0 0,0 0,0 0,5 -5,11 -11,9 -2,0 -4,-1 -5,-3 -11,-6 -33,-6 -47,-6 1,3 1,6 1,10 0,9 1,18 1,27 1,1 2,1 2,2 4,4 2,12 -5,12 0,1 0,1 0,2 -2,6 -11,5 -13,-2 0,-1 0,-2 0,-2 -10,-2 -20,-4 -30,-6 0,2 1,3 1,5 2,12 6,25 5,37 0,1 0,1 -1,2 0,0 0,1 0,1 -1,2 -2,3 -3,3 0,0 0,0 -1,0 -2,1 -3,0 -5,0 -10,-1 -23,-7 -34,-10 2,6 4,12 5,18 2,10 -13,12 -15,2 -2,-8 -4,-15 -7,-23 -20,-2 -41,-1 -60,-7 -4,-1 -2,-6 1,-7z"/>
  <path class="fil14" d="M937 4034c-65,-8 -147,25 -99,64 49,39 172,26 187,-9 15,-35 -41,-49 -88,-55z"/>
  <path class="fil2" d="M8 1069c1,-6 3,-12 5,-17 1,17 7,32 25,45 32,24 81,10 111,34 -19,9 -66,30 -53,49 9,14 41,13 54,13 31,0 62,-7 92,-15 52,-14 96,-57 129,-97 36,-44 66,-92 106,-133 2,-2 2,-4 0,-6 -11,-11 -23,-20 -36,-29 19,-12 45,-17 66,-25 19,-7 48,-14 60,-32 14,-20 -31,-29 -40,-31 -26,-4 -47,-2 -70,-18 -24,-17 -44,-39 -59,-64 19,11 35,24 52,39 4,3 9,-1 6,-5 -6,-13 -13,-26 -19,-40 21,24 42,45 70,61 2,1 5,0 6,-3 5,-33 27,-55 53,-72 -10,12 -19,27 -24,40 -8,22 0,35 17,30 30,-9 61,-46 84,-64 12,-9 31,-13 44,-22 0,0 0,0 0,0 1,0 1,1 2,1 -1,1 -2,2 -3,3 0,1 0,2 0,3 -13,22 -33,34 -53,49 -19,14 -36,31 -56,44 0,0 0,1 1,1 4,19 16,40 4,59 -10,13 -27,18 -40,27 -35,24 -55,59 -73,96 1,1 2,2 4,3 -9,17 -16,34 -22,53 -2,6 -4,13 -7,19 -31,62 -69,122 -102,183 -10,19 -34,51 -29,75 2,10 8,18 15,25l283 222c2,1 4,1 6,0 7,-6 12,-14 15,-23 2,44 8,87 21,129 8,25 8,51 14,77 0,1 0,2 1,4 -1,-2 -2,-4 -3,-6 -2,-4 -6,-5 -9,-3 -5,-9 -10,-18 -17,-27 -15,-21 -29,-42 -44,-63 -32,-46 -71,-83 -117,-115 -83,-59 -167,-117 -246,-181 -1,1 -2,1 -3,0 -31,-26 -62,-52 -95,-77 -23,-18 -48,-37 -65,-61 -18,-25 -23,-55 -38,-82 -12,-23 -29,-47 -22,-74z"/>
  <path class="fil11" d="M1383 4109c2,-16 0,-34 0,-51 -1,-3 -1,-6 -2,-9 0,-1 1,-2 2,-2 0,-25 -3,-49 -3,-73 0,-20 1,-41 6,-60 8,-28 16,-51 13,-80 -6,-51 -14,-103 -21,-154 -3,-27 -7,-54 -9,-82 -2,-25 -2,-51 -4,-77 -1,0 -2,-1 -1,-2 2,-15 21,-19 33,-21 32,-7 64,-12 96,-14 27,-2 54,-1 80,7 2,0 3,1 4,2 1,-2 3,-1 3,1l0 0c9,4 17,8 24,14 7,6 6,11 5,19 0,1 -1,1 -1,1 -3,18 -7,35 -11,53 -4,23 -6,46 -9,69 -6,44 -18,86 -20,130 -1,20 -1,41 0,62 2,23 10,40 24,58 26,33 55,71 97,86 18,6 37,6 56,7 19,1 35,6 52,14 31,15 60,38 83,65 20,22 39,54 46,83 1,4 1,9 1,12 6,25 2,51 -12,73 -16,24 -47,35 -73,41 -58,15 -124,17 -184,14 -51,-3 -101,-19 -136,-59 -20,-23 -28,-53 -53,-72 -22,-17 -52,-21 -72,-39 0,-1 0,-2 -1,-3 -5,-3 -8,-7 -9,-12l0 0z"/>
  <g id="_525343288">
   <path class="fil12" d="M1399 4112c9,12 24,18 38,21 14,3 28,5 39,14 7,5 13,11 20,16 2,1 4,0 5,-2 7,-38 -61,-49 -87,-64 -4,-5 -9,-9 -15,-7 -7,2 -4,18 0,22zm-16 -3c2,-16 0,-34 0,-51 -1,-3 -1,-6 -2,-9 0,-1 1,-2 2,-2 0,-4 0,-8 0,-13 7,10 14,19 23,27 13,11 26,19 42,26 18,7 42,1 53,19 5,8 11,23 21,24 8,1 16,-9 20,-13 20,-19 41,-42 67,-53 -31,25 -68,57 -59,101 10,47 65,57 105,62 64,7 131,6 192,-16 36,-13 68,-34 72,-72 2,5 4,11 5,16 1,4 1,9 1,12 1,4 1,7 2,11 -31,49 -97,63 -152,71 -34,5 -69,8 -103,4 -33,-5 -64,-17 -97,-21 -2,0 -4,1 -4,3 4,25 44,30 64,34 48,10 98,15 147,4 36,-8 74,-13 108,-27 8,-4 17,-8 25,-13 -1,2 -2,4 -3,6 -16,24 -47,35 -73,41 -58,15 -124,17 -184,14 -51,-3 -101,-19 -136,-59 -20,-23 -28,-53 -53,-72 -22,-17 -52,-21 -72,-39 0,-1 0,-2 -1,-3 -5,-3 -8,-7 -9,-12l0 0z"/>
  </g>
  <path class="fil13" d="M1606 3528c-3,18 -7,35 -11,53 -1,5 -1,9 -2,13 -12,4 -23,9 -36,12 -1,0 -3,2 -3,4 1,5 2,9 6,13 3,4 8,7 11,11 4,6 4,13 0,19 -6,0 -11,0 -16,0 -2,-1 -5,0 -5,2 0,8 4,17 7,24 2,5 5,12 5,17 1,8 -6,3 -11,1 -2,-1 -3,0 -4,2 -4,7 -7,14 -3,21 3,5 8,9 10,15 2,6 4,23 -10,17 -2,-1 -4,0 -4,2 -1,6 -2,14 1,20 4,8 10,16 11,25 0,9 -16,10 -19,20 -3,9 4,19 8,27 4,9 17,28 -1,28 -2,0 -3,2 -3,4 3,8 13,14 20,19 8,5 31,19 14,26 -2,1 -3,4 -1,5 8,6 17,9 26,12 8,3 35,12 23,23 -1,1 0,4 1,4 9,6 18,13 29,16 4,1 23,4 14,14 -1,1 -1,3 1,4 5,3 10,6 16,7 2,0 32,-1 24,9 -1,1 -1,2 0,3 -18,7 -37,14 -56,19 -20,5 -34,-8 -49,-20 -11,-9 -22,-22 -35,-28 -3,-1 -7,-1 -10,0 -8,3 -13,-10 -16,-15 -5,-8 -13,-21 -23,-24 -4,-1 -8,-2 -13,-2 -1,0 -1,0 -2,0 -9,-1 -16,-3 -16,-15 0,-11 -2,-22 -10,-31 -9,-9 -37,-15 -28,-33 4,-9 16,-19 14,-31 -1,-9 -8,-13 -14,-19 -28,-23 24,-32 11,-56 -3,-6 -20,-17 -18,-23 3,-10 19,-19 18,-29 -1,-7 -11,-9 -14,-16 -5,-13 8,-25 8,-38 0,-1 -1,-3 -2,-3 -23,-2 0,-34 4,-45 1,-2 -1,-4 -3,-4 -15,3 -46,3 -50,23 -3,14 1,29 3,43 3,16 5,32 7,47 5,35 9,72 7,108 -1,20 -6,38 -19,54 -3,4 -6,9 -9,13 6,-20 10,-39 7,-62 -6,-51 -14,-103 -21,-154 -3,-27 -7,-54 -9,-82 -2,-25 -2,-51 -4,-77 -1,0 -2,-1 -1,-2 2,-15 21,-19 33,-21 32,-7 64,-12 96,-14 27,-2 54,-1 80,7 2,0 3,1 4,2 1,-2 3,-1 3,1l0 0c9,4 17,8 24,14 7,6 6,11 5,19 0,1 -1,1 -1,1z"/>
  <path class="fil13" d="M1920 4179c-8,14 -24,23 -39,31 -20,13 -45,22 -68,28 -29,7 -60,9 -89,11 -50,3 -102,1 -147,-24 -18,-10 -35,-24 -45,-43 -12,-23 -17,-53 -44,-63 -12,-4 -25,-4 -37,-8 -13,-4 -25,-10 -37,-17 -11,-6 -20,-13 -26,-22 0,13 2,26 0,39 12,10 23,18 37,25 12,6 25,11 37,18 21,12 32,31 43,51 27,50 77,74 131,81 53,7 109,3 161,-4 33,-4 69,-11 96,-32 23,-17 28,-44 27,-70zm-532 -123c9,20 28,30 47,40 12,6 25,10 38,14 9,2 17,3 24,8 15,10 22,24 30,40 0,1 1,1 1,2 4,-25 20,-49 36,-67 19,-21 44,-36 69,-48 -45,-32 -94,-61 -132,-102 -18,-19 -25,-39 -30,-64 -6,-31 -12,-62 -13,-94 0,-1 1,-1 1,-2 -1,-6 -1,-11 -1,-17 1,-13 1,-26 2,-39 1,-27 1,-55 2,-82 1,-27 3,-55 6,-82 2,-13 3,-26 4,-39 1,-12 6,-23 5,-35 -22,2 -44,5 -66,9 -14,3 -41,5 -46,21 0,1 0,1 -1,1 7,52 11,105 18,158 7,53 14,106 20,159 3,22 -3,42 -10,63 -9,28 -10,54 -9,83 1,24 3,48 3,72zm92 -540c-2,12 -2,25 -3,37 -2,27 -6,55 -7,82 -1,27 -1,55 -2,82 -1,13 -1,26 -2,40 -1,12 1,24 -2,35 3,24 6,48 11,71 3,13 4,26 8,39 5,16 15,29 26,40 19,19 41,35 62,51 21,17 44,30 65,47 1,0 1,0 1,1 0,0 1,1 1,1 19,-9 39,-15 60,-20 -3,-1 -7,-3 -7,-3 -7,-4 -14,-7 -20,-11 -10,-5 -19,-12 -28,-18 -20,-16 -37,-34 -58,-48 -15,-11 -32,-23 -41,-39 -12,-22 -13,-47 -12,-71 1,-56 9,-112 15,-167 6,-56 13,-113 27,-167 -9,-3 -18,-5 -24,-6 -22,-4 -45,-3 -67,-1 1,9 -1,18 -3,26zm58 293c-2,29 -3,60 8,87 10,23 34,36 53,50 20,14 36,32 56,46 12,8 25,15 38,22 4,2 9,5 13,7 7,-1 15,-2 23,-3 16,-2 34,-3 51,-2 8,0 16,2 24,5 -7,-4 -13,-8 -20,-11 -18,-9 -36,-11 -56,-12 -16,-1 -32,-3 -47,-8 -18,-6 -33,-20 -46,-32 -13,-12 -24,-25 -35,-39 -11,-13 -22,-26 -29,-41 -15,-31 -11,-72 -9,-105 3,-42 15,-82 21,-124 6,-42 13,-83 24,-124 -1,-13 -13,-21 -27,-26 -18,103 -32,207 -40,311zm278 219c-9,-3 -17,-5 -26,-7 -17,-3 -38,0 -54,1 -8,1 -16,2 -24,3l-6 2c0,0 0,0 0,0 -20,4 -39,11 -58,19 -56,23 -99,62 -116,122 11,22 27,38 49,51 43,25 96,26 144,24 50,-2 100,-10 147,-30 0,0 0,-1 1,-1 15,-11 34,-19 42,-37 7,-15 -4,-35 -11,-48 -18,-35 -41,-63 -72,-87 -5,-4 -10,-7 -15,-11zm96 211c-16,24 -47,35 -73,41 -58,15 -124,17 -184,14 -51,-3 -101,-19 -136,-59 -20,-23 -28,-53 -53,-72 -22,-17 -52,-21 -72,-39 0,-1 0,-2 -1,-3 -5,-3 -8,-7 -9,-12l0 0c2,-16 0,-34 0,-51 -1,-3 -1,-6 -2,-9 0,-1 1,-2 2,-2 0,-25 -3,-49 -3,-73 0,-20 1,-41 6,-60 8,-28 16,-51 13,-80 -6,-51 -14,-103 -21,-154 -3,-27 -7,-54 -9,-82 -2,-25 -2,-51 -4,-77 -1,0 -2,-1 -1,-2 2,-15 21,-19 33,-21 32,-7 64,-12 96,-14 27,-2 54,-1 80,7 2,0 3,1 4,2 1,-2 3,-1 3,1l0 0c9,4 17,8 24,14 7,6 6,11 5,19 0,1 -1,1 -1,1 -3,18 -7,35 -11,53 -4,23 -6,46 -9,69 -6,44 -18,86 -20,130 -1,20 -1,41 0,62 2,23 10,40 24,58 26,33 55,71 97,86 18,6 37,6 56,7 19,1 35,6 52,14 31,15 60,38 83,65 20,22 39,54 46,83 1,4 1,9 1,12 6,25 2,51 -12,73z"/>
  <path class="fil13" d="M1635 3993c-2,0 -4,0 -5,0 -7,0 -14,-1 -20,-1l-1 7c-1,3 -1,6 -2,9 8,-2 15,-4 24,-5 2,-3 3,-6 5,-9zm-108 -201c-7,-5 -14,-10 -22,-14 -2,2 -5,5 -7,7 -2,3 -4,5 -7,7 -3,3 -5,5 -7,8 1,0 2,1 3,1 3,2 7,3 10,4 2,1 4,2 5,2 8,-7 17,-12 25,-16l-1 0zm-26 -71c-6,4 -12,9 -18,14 4,2 8,4 12,6l3 1c1,1 3,1 4,2 6,-4 13,-8 20,-11 -7,-4 -14,-9 -21,-12zm-1 -52c-7,4 -12,8 -17,12 7,2 14,5 20,8 7,-3 14,-6 22,-9 -8,-4 -16,-8 -25,-12zm0 -31c6,-3 12,-5 19,-7 -3,-2 -5,-3 -8,-4l-6 -3c-8,3 -15,6 -22,10 6,1 12,3 17,5zm12 286c7,-1 14,-1 20,-1 3,0 6,0 9,0 1,0 3,0 4,0 1,-3 2,-6 4,-9 -2,-1 -5,-2 -7,-3 -6,-3 -12,-5 -18,-7l-2 3c-3,6 -7,12 -10,18zm-11 -77c-6,6 -14,12 -18,19 10,1 20,2 31,5 2,-2 4,-5 6,-7 4,-4 7,-6 11,-9l-2 -2c-7,-5 -13,-9 -21,-13 -2,2 -5,4 -7,7zm90 108c-8,-2 -17,-3 -26,-4 0,5 0,10 0,16 6,-1 12,-1 17,-1 2,0 3,0 5,0 1,-4 2,-7 4,-11zm-154 -153c2,-6 7,-9 12,-9 2,0 4,0 6,0 6,-8 13,-16 20,-22 2,-2 4,-3 5,-5 -5,-2 -9,-4 -14,-6 -3,-1 -6,-2 -10,-2 -4,-1 -9,-1 -14,-3 -6,-3 -9,-10 -7,-17l1 -4 1 0c2,-2 5,-4 8,-4 1,0 1,0 2,0 6,-7 13,-13 21,-18 -1,0 -1,0 -2,0 -7,-1 -14,-3 -20,-11 -4,-5 -3,-11 0,-16 2,-8 9,-16 17,-22 -7,-2 -14,-4 -19,-8 -4,-3 -6,-7 -6,-12 0,-3 2,-6 4,-8 0,-4 1,-8 5,-11 6,-5 14,-10 22,-15 0,0 -1,0 -1,0 -5,-1 -11,-3 -16,-8 -5,-4 -6,-12 -2,-18 4,-6 10,-7 16,-5 4,2 8,3 13,4 3,1 7,2 9,3 6,2 11,5 16,7 27,-10 54,-15 75,-14 4,0 7,3 8,6 1,3 0,7 -3,8 -12,9 -27,13 -40,18 -2,1 -4,1 -6,2 5,4 10,7 15,11 4,-1 8,-2 12,-3 5,-1 9,2 10,7 2,4 0,9 -4,11 -1,1 -2,1 -3,2 1,2 2,3 3,5 2,4 1,8 -2,11 -3,3 -8,3 -12,0 -3,-2 -5,-4 -8,-7 -4,2 -9,4 -13,5 9,5 16,11 21,17l1 0c5,-1 10,1 12,6 2,4 1,7 -2,10 0,0 0,0 0,0 2,3 1,7 -2,10 -3,2 -7,3 -9,1l-4 -2c-3,2 -7,3 -10,4 -4,2 -9,4 -13,6 7,5 14,11 22,18 4,-1 9,1 11,5 1,2 1,4 1,6l2 2c3,3 4,9 1,13 -3,4 -8,5 -12,3 -2,-1 -4,-2 -7,-4 -2,1 -3,2 -5,3 -3,2 -6,4 -10,6 -2,1 -3,2 -5,3 11,8 21,17 29,27 2,1 3,3 4,5 2,3 3,7 0,11 -2,3 -5,4 -8,4 -9,4 -16,10 -23,15 1,1 2,1 3,2 5,3 9,8 13,12 4,4 7,8 12,11 4,2 6,7 5,11 -1,3 -3,6 -6,7 -2,3 -5,5 -7,7 -2,2 -4,3 -5,5 -1,1 -2,3 -4,4 9,4 18,9 26,15 2,0 4,1 6,2 1,1 2,2 3,4 1,1 2,1 3,2 3,3 4,7 3,11 -1,3 -4,5 -8,6 0,1 -1,3 -1,4 12,2 24,5 36,10 3,-1 6,-1 9,0 3,1 4,4 5,7 4,2 6,7 4,12 -1,3 -4,6 -7,6 0,2 -1,4 -1,6 11,1 23,3 35,7 3,-2 6,-2 9,-1 4,1 6,4 7,7 2,2 2,4 2,7 0,3 -2,6 -5,7 -1,2 -2,5 -3,7 16,-1 31,1 44,5 4,1 8,5 8,10 0,4 -3,7 -7,9 -16,5 -32,5 -48,6 -3,0 -6,0 -9,1 -2,5 -4,12 -5,18 -1,5 -4,9 -9,10 -1,0 -3,1 -4,1 -4,0 -7,-1 -10,-4 -3,-3 -5,-8 -4,-12 1,-2 1,-5 2,-8 0,0 -1,0 -1,0 -8,3 -15,5 -22,6 -2,1 -4,1 -7,0l-1 0 -1 -1c-3,-1 -5,-3 -7,-6 0,-1 -1,-1 -1,-2 0,-1 -1,-2 -1,-3 -1,-11 2,-22 4,-32l1 -3c-3,1 -6,1 -9,2 -2,0 -5,1 -7,1 -2,5 -6,8 -11,9 -5,0 -10,-2 -12,-7 -3,-1 -6,-3 -7,-7 -2,-5 -1,-11 3,-15 0,0 0,0 0,0 0,-6 0,-11 1,-17 0,-3 0,-5 0,-8 0,-1 0,-2 0,-3 -12,0 -28,1 -36,5 -2,2 -5,3 -7,4 -4,1 -9,0 -13,-3 -4,-3 -6,-7 -5,-12l0 0 0 -1c0,-17 8,-33 17,-47 -9,-1 -18,-2 -28,-3l-4 0c-5,0 -9,-3 -11,-7 -2,-3 -2,-8 -1,-12 -1,-2 -1,-4 0,-7 4,-16 15,-26 26,-36 1,-1 2,-2 3,-3 -4,-1 -8,-3 -12,-5 -1,0 -1,0 -2,-1 -2,1 -5,2 -8,1 -3,-1 -6,-2 -8,-4 -2,0 -4,-1 -5,-1 -3,-1 -5,-2 -7,-5 -2,-4 -2,-8 -1,-10 0,-1 0,-2 1,-3z"/>
  <path class="fil11" d="M1634 4008c3,-7 7,-14 11,-20 -14,0 -27,-2 -41,-2 -1,4 -1,8 -2,12 -1,6 -2,13 -3,19 11,-4 23,-7 35,-9zm-42 -37c2,-7 4,-14 8,-21 -13,-3 -26,-5 -40,-5 0,2 0,4 0,6 -1,8 0,16 0,23 11,-2 23,-2 32,-3zm-43 -42c2,-6 5,-12 7,-19 -12,-5 -23,-11 -36,-15 0,0 0,0 0,0 -6,11 -14,22 -18,35 13,-3 28,-2 38,-2 3,0 5,0 8,0zm-34 -51c3,-3 6,-6 9,-9 5,-5 12,-9 18,-13 -1,-1 -2,-1 -4,-2 -11,-8 -20,-15 -31,-20 -1,1 -1,1 -2,2 -10,10 -27,23 -31,36 15,1 28,2 42,6zm-11 -62c11,-9 23,-17 36,-22 -12,-8 -24,-16 -36,-23 -4,4 -7,7 -10,11 -6,7 -13,14 -19,22 7,3 14,6 20,9 3,1 6,3 8,4zm-1 -63c10,-7 21,-13 32,-18 -11,-7 -22,-14 -33,-20 0,0 -1,0 -1,-1 -10,7 -20,15 -29,23 8,3 16,7 24,11 2,1 5,3 7,4zm0 -56c12,-6 24,-10 37,-14 -13,-7 -26,-14 -40,-19 0,0 0,0 0,0 -11,6 -20,13 -28,22 11,2 22,6 31,11zm-37 -61c11,2 23,5 34,9 11,-5 22,-9 34,-12 -10,-6 -19,-11 -29,-16 0,0 0,0 0,0 -14,5 -27,12 -40,19 0,0 1,0 1,0zm237 382c-19,6 -40,6 -60,7 -3,8 -5,15 -7,23 -2,10 -17,8 -15,-2 1,-6 3,-12 5,-18 -11,3 -24,9 -34,10 -2,1 -3,1 -5,0 0,0 0,0 -1,0 -1,-1 -3,-2 -3,-3 0,0 0,-1 0,-1 0,-1 -1,-1 -1,-2 -1,-12 3,-25 5,-37 0,-2 1,-3 1,-5 -10,2 -20,4 -30,6 0,1 0,2 0,2 -1,6 -10,8 -13,2 0,-1 0,-1 0,-2 -7,0 -9,-8 -5,-12 1,-1 2,-1 2,-2 0,-9 0,-18 1,-27 0,-3 1,-6 1,-10 -14,0 -36,0 -47,6 -1,2 -3,2 -5,3 -6,1 -11,-4 -11,-9 0,0 0,0 0,0 0,-19 10,-36 20,-51 0,0 0,-1 1,-1 -14,-3 -27,-3 -42,-4 -7,-1 -8,-8 -5,-13 -1,-1 -1,-3 -1,-5 5,-18 20,-28 33,-41 1,0 1,-1 2,-1 -7,-2 -14,-5 -21,-8 -2,-1 -4,-1 -5,-2 0,0 0,0 0,0 -4,3 -9,1 -11,-2 -2,0 -5,-1 -7,-2 -4,-1 -5,-6 -4,-9 0,-1 0,-1 0,-2 1,-3 4,-5 7,-5 3,0 5,0 8,0 8,-12 21,-24 30,-33 1,-1 2,-2 3,-3 -7,-4 -15,-7 -22,-10 -8,-3 -16,-2 -23,-5 -4,-2 -5,-6 -4,-10l0 0c1,-2 3,-4 6,-4 1,0 3,0 4,0 0,0 0,0 0,0 10,-11 20,-19 32,-26 -5,-2 -10,-3 -15,-4 -7,-1 -12,-3 -16,-8 -2,-3 -2,-7 1,-10 2,-11 16,-21 25,-28 -11,-2 -23,-4 -31,-10 -5,-3 -3,-11 2,-13 0,0 0,0 1,0 -2,-3 -2,-7 1,-9 9,-7 20,-14 33,-20 -3,-1 -6,-3 -10,-4 -7,-2 -13,-3 -19,-7 -6,-5 0,-16 8,-13 7,3 15,5 23,8 6,2 12,5 17,8 26,-10 53,-15 75,-14 2,0 3,3 1,4 -15,11 -33,14 -50,20 -2,1 -5,2 -7,3 10,6 19,12 27,19 5,-1 10,-2 15,-3 4,0 6,5 3,7 -3,2 -6,3 -9,5 2,3 5,6 7,10 2,3 -3,5 -5,4 -4,-3 -7,-6 -11,-9 -9,4 -19,8 -28,11 13,6 25,14 34,24 1,0 3,-1 4,-1 3,-1 7,4 3,6 -1,1 -2,1 -3,2 1,2 2,3 3,5 1,2 -1,4 -3,3 -2,-1 -5,-3 -7,-4 -12,5 -24,10 -35,16 11,7 22,16 32,25 1,0 2,-1 3,-1 4,-1 7,3 3,6 0,0 0,0 0,0 2,2 3,3 5,5 3,3 0,8 -4,6 -3,-2 -6,-4 -10,-5 -6,3 -12,6 -18,10 -4,3 -8,6 -12,9 13,9 25,20 35,32 1,1 2,2 3,3 0,0 0,0 0,1 2,3 -1,6 -4,5 -12,5 -23,14 -32,23 3,2 7,4 10,5 10,6 15,18 26,23 3,2 3,6 -1,7 0,0 -1,0 -1,0 -4,5 -10,9 -14,14 -3,3 -6,7 -8,11 12,5 23,11 33,19 2,-1 5,1 4,3 2,1 3,2 5,3 3,3 0,7 -3,6 -1,0 -2,-1 -3,-1 -1,6 -2,11 -3,16 15,1 30,5 44,12 0,0 0,-1 1,-1 2,-3 7,-1 6,3 0,0 0,1 0,1 1,1 2,1 3,2 3,2 2,7 -2,7 -1,0 -2,0 -3,-1 -1,6 -3,12 -4,18 15,1 30,4 44,9 0,0 0,0 0,0 3,-4 10,-1 9,3 0,0 0,0 0,0 2,1 1,4 -1,5 0,0 -1,0 -1,0 -3,6 -5,12 -8,19 18,-1 36,0 52,4 3,1 5,6 1,7z"/>
  <path class="fil14" d="M1739 4034c65,-8 147,25 99,64 -49,39 -172,26 -187,-9 -15,-35 41,-49 88,-55z"/>
  <path class="fil4" d="M925 2197l413 99 413 -99 -106 1161c68,159 15,178 15,178 -116,55 -211,42 -267,24 -33,-10 -54,-41 -54,-75 0,34 -22,65 -54,75 -56,18 -151,31 -267,-24 0,0 -53,-19 15,-178l-106 -1161z"/>
  <path class="fil2" d="M1136 1654l-141 42 -141 -42 0 -80 283 0 0 80zm-21 149l-241 0 0 -122 121 35 121 -35 0 122zm40 -249l-322 0 0 115 21 6 0 148 281 0 0 -148 21 -6 0 -115z"/>
  <path class="fil2" d="M978 2647c0,0 292,187 721,0l-15 131c0,0 -84,50 -218,72l-128 622 -119 -622c-71,-11 -147,-34 -227,-72l-15 -131z"/>
  <path class="fil2" d="M2055 1538c0,0 28,549 -62,1072l41 16 -9 89 -64 -14 -15 -16 -2 -23 4 -49 -24 -33 11 -53 32 -32 -27 -33 16 -85 11 -204 11 -260 5 -108 31 -67 40 -201z"/>
  <polygon class="fil15" points="1445,2389 1429,2382 1236,2386 1231,2424 1247,2454 1266,2471 1318,2480 1376,2478 1410,2472 1433,2455 "/>
  <path class="fil2" d="M1338 1630c14,0 25,11 25,25 0,14 -11,25 -25,25 -14,0 -25,-11 -25,-25 0,-14 11,-25 25,-25z"/>
  <path class="fil2" d="M1338 1863c14,0 25,11 25,25 0,14 -11,25 -25,25 -14,0 -25,-11 -25,-25 0,-14 11,-25 25,-25z"/>
  <path class="fil2" d="M1338 2096c14,0 25,11 25,25 0,14 -11,25 -25,25 -14,0 -25,-11 -25,-25 0,-14 11,-25 25,-25z"/>
  <path class="fil2" d="M28 1114c16,33 64,115 72,129l233 180c25,20 52,38 80,54 120,69 177,136 216,194 -45,-195 13,-369 14,-371 1,-3 4,-5 7,-5 3,1 5,4 5,7 -1,3 -42,232 17,435 7,13 11,21 11,22 61,111 102,218 129,307 38,118 50,213 52,238 1,0 1,0 2,0 3,3 5,5 8,7 31,22 133,84 291,75 12,-1 24,-2 35,-3 16,-2 33,-4 49,-5l176 0 0 0c17,2 33,4 50,6 12,1 24,2 35,3 158,8 260,-54 291,-75 3,-2 5,-5 8,-7 1,0 1,0 2,0 3,-25 15,-120 52,-238 27,-89 68,-196 129,-307 1,-1 4,-9 11,-22 59,-203 18,-432 17,-435 -1,-3 2,-6 5,-7 3,-1 6,2 7,5 0,3 58,176 13,371 1,-1 1,-2 2,-2l-3 7c0,0 -9,47 -35,103 -6,11 -12,22 -17,33 0,0 0,1 -1,1l0 0c0,0 0,0 0,0 1,323 -15,525 -34,649l31 39 -9 7c-11,9 -22,17 -34,25 -1,7 -3,13 -4,19 -11,53 22,49 25,51 11,3 98,23 154,31 40,6 51,-40 52,-43 1,-3 65,-203 87,-705 19,-457 -57,-670 -71,-704l-472 -119 -121 329 -256 -96 0 0 -256 96 -122 -332c-174,66 -434,-27 -487,-48 -2,2 -5,3 -8,3 -1,0 -2,0 -4,-1 -1,0 -1,-1 -2,-1 -2,4 -4,9 -6,13 -27,53 -50,110 -82,160 -25,40 -55,90 -98,112 -1,1 -2,-1 -1,-2 44,-33 72,-80 98,-127 10,-17 18,-34 27,-52 -11,11 -24,21 -36,30 -29,24 -62,44 -99,51 -2,0 -2,-2 -1,-2 37,-11 69,-35 98,-59 21,-18 39,-35 56,-57 10,-20 19,-40 29,-59 3,-5 5,-11 8,-16 0,-2 0,-4 0,-6 23,-70 72,-106 112,-130 21,-12 9,-42 5,-51 0,0 -30,16 -73,-7 -6,-4 -11,-10 -16,-15 -15,-13 -30,-27 -40,-44 -15,-26 -29,-77 -1,-99 1,-1 3,0 2,1 -5,6 -7,14 -9,22 9,-10 19,-19 29,-27 0,0 0,0 0,0l-10 7c-13,-17 -25,-25 -36,-24 -21,2 -40,35 -45,47l-133 153 -121 77 -71 110c-9,17 -29,67 -17,94zm1367 1356c16,-3 28,-10 33,-26 4,-16 4,-37 4,-54l-189 0c0,17 0,38 4,54 4,17 17,23 33,26 18,4 38,5 57,5l0 0c19,0 39,-2 57,-5zm573 -607c-105,226 -129,414 -132,445l101 128c17,-118 31,-298 31,-573zm-1129 486l-117 148c210,161 521,217 579,227l36 -103 1 0 0 0 1 0 36 103c56,-9 340,-61 548,-204l28 -20c1,-1 2,-1 3,-2l-2 -3 -20 -26 -95 -120 -26 -31c-123,116 -355,138 -376,139 -1,0 -1,0 -2,0 -3,6 -8,10 -14,14 -22,14 -55,12 -81,13l0 0c-26,-1 -59,1 -81,-13 -6,-4 -11,-8 -14,-14 -1,0 -1,0 -2,0 -21,-2 -253,-23 -376,-139l-26 31zm216 1008l1 6 -2 6c-50,116 -29,144 -26,147 52,25 105,37 156,37 32,0 63,-5 93,-14 23,-7 50,-28 50,-52l0 -735 -19 -1c-2,0 -148,-21 -315,-83l63 690zm295 129c0,24 27,45 50,52 30,9 61,14 93,14 52,0 104,-12 156,-37 2,-3 23,-31 -26,-147l-2 -6 1 -6 63 -690c-167,62 -313,82 -315,83l-19 1 0 735zm622 -789l105 24c8,2 16,0 22,-4 7,-4 11,-11 12,-19l7 -38c-1,0 -2,0 -4,0 -60,-9 -156,-31 -157,-32l-2 0c0,0 -1,0 -2,-1l-5 38c-2,15 8,29 23,32zm-329 -1709l-284 291 220 82 115 -314 -52 -59zm-610 0l-52 59 115 314 220 -82 -284 -291zm-368 -267c-10,-1 -20,-5 -28,-10 -20,-8 -35,-1 -53,9 -14,8 -31,18 -38,34 -5,11 -23,49 -12,58 1,0 1,1 1,1 11,-1 22,-2 34,-4 0,-3 2,-6 4,-8l93 -80zm-46 -25c-26,-30 -39,-68 -39,-108 -2,0 -4,0 -7,0 -16,-3 -28,5 -39,14 -12,10 -24,20 -37,30 -23,18 -41,41 -65,58 -1,23 8,49 20,65 9,12 19,24 31,34 10,9 20,22 33,26 0,0 0,0 1,1 4,0 9,0 13,-1 -13,-8 6,-59 11,-68 13,-20 52,-50 81,-45 -1,-2 -2,-3 -4,-4zm-594 313l74 -116 122 -77 129 -147c5,-11 28,-55 64,-59 20,-2 40,9 58,33 14,-12 28,-23 42,-34 12,-9 24,-22 39,-27 13,-4 21,-1 33,1 2,1 2,3 1,4 6,29 10,58 26,84 10,15 25,34 44,38 7,2 15,4 21,4l5 -4c3,-2 6,-3 9,-3l5 2c1,1 2,1 3,2 4,5 4,13 -1,17l-102 88c9,22 14,58 -17,77 -33,20 -73,49 -95,100 55,21 315,112 477,44l72 -82 306 314 0 0 306 -314 72 82 4 6 484 121 2 5c4,8 97,213 76,721 -21,506 -87,709 -88,710 -5,22 -24,58 -63,61l-7 40c-2,11 -8,21 -18,27 -7,5 -15,7 -23,7 -3,0 -6,0 -9,-1l-105 -24c-21,-5 -35,-25 -32,-46l6 -40c-14,-6 -33,-22 -28,-69 -66,43 -138,77 -207,104l-64 701c68,159 15,178 15,178 -63,30 -119,40 -167,40 -40,0 -74,-7 -100,-15 -33,-10 -54,-41 -54,-75 0,34 -22,65 -54,75 -26,8 -60,15 -100,15 -48,0 -104,-10 -167,-40 0,0 -53,-19 15,-178l-64 -701c-92,-36 -189,-84 -270,-149l-9 -7 153 -193c-4,-36 -34,-272 -179,-538 -1,-2 -76,-165 -265,-275 -22,-13 -44,-27 -64,-43l-250 -193 -1 -2c-2,-4 -57,-96 -74,-133 -20,-42 13,-108 18,-116z"/>
  <path class="fil15" d="M2182 1126c18,4 34,17 40,35l45 122c3,8 -5,16 -13,14l-52 -15 -42 -12 -42 -12 -42 -12 -42 -12 -42 -12 -42 -12 -42 -17c-37,-19 -88,-55 -98,-118 -2,-15 10,-28 25,-24l348 75z"/>
  <path class="fil16" d="M1946 1157l307 88 14 38c3,8 -5,16 -13,14l-52 -15 -42 -12 -42 -12 -42 -12 -42 -12 -42 -12 -42 -12 -42 -17c-37,-19 -88,-55 -98,-118 -1,-7 8,-11 12,-5 18,27 56,68 125,87z"/>
  <path class="fil17" d="M2223 1208l-19 -46c-4,-11 -14,-18 -25,-21l-320 -70c0,0 42,44 148,74l216 63z"/>
  <path class="fil15" d="M597 973c-19,-1 -37,8 -47,23l-75 106c-5,7 0,17 9,17l54 -1 43 -1 43 -1 43 -1 43 -1 43 -1 43 -1 45 -5c38,-8 91,-27 119,-76 10,-18 -2,-41 -23,-42l-342 -18z"/>
  <path class="fil16" d="M815 1065l-317 4 -23 32c-5,7 0,17 9,17l54 -1 43 -1 43 -1 43 -1 43 -1 43 -1 43 -1 45 -5c38,-8 91,-27 119,-76 5,-9 -6,-18 -14,-12 -26,20 -70,43 -133,44z"/>
  <path class="fil17" d="M537 1041l30 -40c7,-9 18,-14 29,-14l325 16c0,0 -52,32 -161,33l-223 5z"/>
  <polygon class="fil15" points="1566,1835 1510,1835 1510,1779 1566,1779 "/>
  <polygon class="fil1" points="1632,1835 1577,1835 1577,1779 1632,1779 "/>
  <polygon class="fil18" points="1698,1835 1643,1835 1643,1779 1698,1779 "/>
  <polygon class="fil19" points="1765,1835 1709,1835 1709,1779 1765,1779 "/>
  <polygon class="fil18" points="1831,1835 1775,1835 1775,1779 1831,1779 "/>
  <polygon class="fil15" points="1775,1845 1831,1845 1831,1901 1775,1901 "/>
  <polygon class="fil1" points="1709,1845 1765,1845 1765,1901 1709,1901 "/>
  <polygon class="fil18" points="1643,1845 1698,1845 1698,1901 1643,1901 "/>
  <polygon class="fil19" points="1577,1845 1632,1845 1632,1901 1577,1901 "/>
  <polygon class="fil18" points="1510,1845 1566,1845 1566,1901 1510,1901 "/>
  <path class="fil8" d="M965 820c98,-1 196,-1 294,3 4,3 9,6 15,5 20,-1 40,-1 60,-1 126,8 301,-42 378,21 0,0 1,0 1,0 -40,140 -168,242 -321,242l-108 0c-162,0 -297,-116 -327,-269 3,-1 6,-1 8,-2z"/>
  <path class="fil6" d="M1338 849l58 0 -31 19c-16,10 -37,10 -53,-1l-28 -18 54 0z"/>
  <g id="_525322648">
   <path class="fil20" d="M2205 2803l88 -65c0,0 28,-10 28,-10 0,0 19,30 19,30l12 55 -7 58 -19 27 -38 4 -33 61 -96 -51 -123 -34 -186 -23c0,0 -17,-42 -15,-43 2,-1 370,-8 370,-8z"/>
   <path class="fil21" d="M2278 2905c-110,-30 -225,-39 -273,-41 145,26 248,90 248,90l25 -48zm43 -79c0,-45 -11,-67 -15,-69 -4,1 -15,24 -14,69 0,21 3,36 5,48 4,8 9,13 14,15 5,-10 10,-30 10,-63zm25 -12c0,-42 -14,-76 -31,-75 -4,0 -8,2 -11,6 1,0 2,0 2,0 20,0 29,43 29,82 0,21 -2,42 -7,58 11,-12 19,-39 18,-70zm-694 -94c95,30 199,42 264,48 43,4 86,3 129,-1 65,-6 168,-21 263,-52l0 0c2,-1 5,-2 7,-2 23,0 42,45 42,101 0,56 -18,101 -40,102 -2,0 -5,-1 -7,-2l0 0c-6,-2 -12,-4 -18,-5l0 0 -26 50 -7 13 -13 -8c-1,-1 -96,-58 -230,-85 -55,-11 -111,-12 -167,-4 -59,8 -129,22 -196,44l0 0c-2,1 -5,2 -7,2 -23,0 -42,-45 -42,-101 0,-56 18,-102 40,-102 2,0 5,1 7,2l0 0z"/>
   <path class="fil20" d="M1645 2718c-43,112 17,172 17,172 38,-21 155,-42 155,-42l5 -64 -41 -34 0 0c51,9 99,14 135,17 19,2 38,2 56,2 -9,23 -16,47 -23,68 -4,12 -5,23 -3,33 -32,-2 -64,0 -96,4 -59,8 -129,22 -196,44l0 0c-2,1 -5,2 -7,2 -23,0 -42,-45 -42,-101 0,-56 18,-102 40,-102z"/>
  </g>
  <g id="_525324184">
   <path class="fil8" d="M1911 2925l108 23c31,7 61,-13 68,-44l23 -108c7,-31 -13,-61 -44,-68l-108 -23c-31,-7 -61,13 -68,44l-23 108c-7,31 13,61 44,68z"/>
   <path class="fil22" d="M1929 2759l-20 93 -3 16c-3,14 -1,28 6,40 2,4 4,7 7,10 4,5 10,9 16,12l-22 -5 -2 0c-1,0 -2,0 -3,-1 0,0 0,0 0,0 -13,-4 -24,-12 -31,-22 -9,-12 -12,-28 -9,-44 0,0 0,-1 0,-1l13 -61 10 -47c7,-31 37,-50 68,-44l1 0 2 0 49 11 56 12c5,1 9,2 13,4 1,0 1,1 2,1l-2 0 -83 -18c-15,-3 -29,0 -41,7 -12,7 -21,18 -25,32 0,2 -1,3 -1,5z"/>
  </g>
  <path class="fil23" d="M1461 941c-23,23 -64,38 -96,42 -58,7 -112,-11 -159,-43 -6,-4 -14,-3 -18,3 -4,6 -3,14 3,18 52,36 113,56 177,48 38,-5 83,-21 111,-49 5,-5 5,-13 0,-18 -5,-5 -13,-5 -18,0z"/>
  <g id="_525324448">
   <path class="fil24" d="M1673 1482c-7,4 -38,25 -48,49 -22,-3 -42,-2 -60,8 2,20 8,37 14,50 -11,10 -25,25 -28,43 4,7 31,20 43,22 -3,10 -1,33 9,43 15,2 41,-2 57,-8 -1,8 -7,32 -10,39 3,7 25,12 35,2 3,-17 3,-30 4,-42 9,8 36,17 56,10 9,-20 4,-37 3,-43 15,-3 39,-14 43,-26 -4,-19 -22,-42 -28,-46 7,-18 7,-38 6,-47 0,0 -25,-12 -60,-8 -3,-10 -15,-31 -36,-43z"/>
   <path class="fil25" d="M1556 1630c6,7 32,18 40,20l4 1 -1 4c-3,10 0,30 7,39 16,1 40,-2 54,-8l5 -2 -1 6c-1,9 -6,29 -10,38 3,3 13,4 16,4 4,0 9,-1 12,-4 3,-14 3,-26 3,-41l0 -7 5 4c12,10 36,14 51,10 6,-13 6,-26 2,-40l-1 -3 3 -1c11,-2 36,-12 40,-23 -3,-13 -17,-35 -27,-44l-2 -1 1 -2c4,-12 7,-30 6,-43 -16,-7 -40,-9 -57,-7l-3 0 -1 -3c-5,-15 -19,-32 -33,-40 -16,9 -38,30 -45,46l-1 2 -3 0c-19,-3 -38,-2 -56,6 2,16 6,32 14,46l1 2 -2 2c-11,10 -24,24 -26,39z"/>
   <path class="fil26" d="M1655 1724c0,1 0,1 -1,2 3,3 13,4 16,4 4,0 9,-1 12,-4l0 -2c-7,-6 -22,-3 -28,0l0 0z"/>
   <path class="fil27" d="M1584 1589c18,1 78,16 90,25 -10,-14 -56,-57 -105,-74 2,16 6,32 14,46l1 2z"/>
   <path class="fil28" d="M1625 1534c0,0 37,57 49,78 -11,-28 -37,-68 -46,-80l-1 2 -3 0z"/>
   <path class="fil29" d="M1673 1486c0,25 3,129 3,129 0,0 21,-50 31,-86l-1 -3c-5,-15 -19,-32 -33,-40z"/>
   <path class="fil30" d="M1766 1535c-11,10 -89,81 -89,81 25,-13 75,-34 82,-36l1 -2c4,-12 7,-30 6,-43z"/>
   <path class="fil31" d="M1788 1626c-21,-5 -59,-18 -109,-8 0,0 49,18 66,32l3 -1c11,-2 36,-12 40,-23z"/>
   <path class="fil32" d="M1743 1693c-8,-11 -52,-64 -66,-71 8,21 12,48 10,57l5 4c12,10 36,14 51,10z"/>
   <path class="fil33" d="M1665 1682c2,-8 9,-61 9,-61 -23,14 -52,39 -68,71 16,1 40,-2 54,-8l5 -2z"/>
   <path class="fil34" d="M1600 1650c8,-9 48,-27 74,-33 -20,-7 -71,-11 -118,13 6,7 32,18 40,20l4 1z"/>
  </g>
 </g>
</svg>
